<svg xmlns="http://www.w3.org/2000/svg" width="39.78" height="39.781" viewBox="0 0 39.78 39.781"><path id="codin" d="M1738.32 103.393h-.13a2.869 2.869 0 01-2.78-2.932 2.81 2.81 0 012.85-2.687h.13a2.869 2.869 0 012.78 2.932 2.81 2.81 0 01-2.85 2.688m-9.48-13.315a19.905 19.905 0 00-17.68 29.041c4.65-.7 12.56-2.84 13.11-9.3a6.334 6.334 0 016.43-6.1c2.13 0 3.97 1.15 3.99 3.569.18 5.2-4.24 5.03-9.27 7.623-5.82 3.714-6.26 7.576-5.55 11.64a3.626 3.626 0 00.52 1.445 19.9 19.9 0 108.45-37.916" transform="translate(-1708.94 -90.094)" fill="#f2bb13" fill-rule="evenodd"/></svg>